<?xml version="1.0" encoding="UTF-8" standalone="no"?>
<svg width="104.902mm" height="73.914mm" viewBox="0 0 1486.8 1047.6"
 xmlns="http://www.w3.org/2000/svg" xmlns:xlink="http://www.w3.org/1999/xlink" version="1.2" baseProfile="full">
<title>Skala instrumentu</title>
<desc>Generated by MuseScore Studio 4.6.3</desc>
<path class="" fill="#ffffff" fill-rule="evenodd" d="M0,0 L1486.8,0 L1486.8,1047.6 L0,1047.6 L0,0 "/>
<polyline class="StaffLines" fill="none" stroke="#000000" stroke-width="2.48" stroke-linejoin="bevel" points="212.598,386.199 1274.6,386.199" />
<polyline class="StaffLines" fill="none" stroke="#000000" stroke-width="2.48" stroke-linejoin="bevel" points="212.598,410.999 1274.6,410.999" />
<polyline class="StaffLines" fill="none" stroke="#000000" stroke-width="2.48" stroke-linejoin="bevel" points="212.598,435.799 1274.6,435.799" />
<polyline class="StaffLines" fill="none" stroke="#000000" stroke-width="2.48" stroke-linejoin="bevel" points="212.598,460.599 1274.6,460.599" />
<polyline class="StaffLines" fill="none" stroke="#000000" stroke-width="2.48" stroke-linejoin="bevel" points="212.598,485.399 1274.6,485.399" />
<polyline class="BarLine" fill="none" stroke="#000000" stroke-width="7.44" stroke-linejoin="bevel" points="216.318,384.959 216.318,486.639" />
<polyline class="BarLine" fill="none" stroke="#000000" stroke-width="7.44" stroke-linejoin="bevel" points="1248.56,384.959 1248.56,486.639" />
<polyline class="BarLine" fill="none" stroke="#000000" stroke-width="14.88" stroke-linejoin="bevel" points="1267.16,384.959 1267.16,486.639" />
<polyline class="BarLine" fill="none" stroke="#000000" stroke-width="7.44" stroke-linejoin="bevel" points="787.541,384.959 787.541,486.639" />
<path class="Accidental" transform="matrix(0.992001,0,0,0.992001,346.364,534.999)" d="M11.7969,-39 C10.5,-39 9.5,-33.4063 9.20313,-22.2031 C9.09375,-19.7031 9.09375,-18.2969 9,-18 C8.90625,-17.7031 8.59375,-17.0938 7.79688,-16.7969 C5.29688,-15.2969 3.29688,-14.2969 2.40625,-13.4063 C1.40625,-12.4063 1,-9 0.796875,-3.59375 L0.796875,-1.70313 L0.796875,-0.796875 C0.796875,0.296875 0.90625,1.29688 1.40625,1.29688 C1.90625,1.29688 3.5,0.796875 6,-0.5 C7,-1 7.70313,-1.20313 7.79688,-1.20313 C7.90625,-1.20313 8,-0.59375 8,0.40625 L8,3.09375 C8,5.40625 7.90625,7.59375 7.20313,7.79688 C7,7.90625 5.90625,8.5 4.20313,9.40625 C1.70313,10.7031 1.5,11 0.203125,12 L0,15.4063 L0,17.7969 C0,21.4063 0.40625,24.2031 1.40625,24.2031 C1.70313,24.2031 2.59375,23.9063 4.20313,23.4063 L7.20313,22.4063 L7.20313,23.0938 C7.20313,23.4063 7.20313,25.2031 7,28.5 C6.70313,34 6.40625,38.4063 6.40625,41.7031 C6.40625,45 6.70313,46.7969 7,47.7031 C7.20313,48.4063 7.40625,48.7031 8.20313,48.7031 C8.40625,48.7031 9,48.5 9.20313,48.2969 C10.2031,46.7969 10.5,33.5 10.7031,27.2031 L11,21 C11.7969,20.2031 12.7031,19.5938 14,19.5938 C14.2031,19.5938 14.2031,20.7969 14.2031,23.0938 C14.2031,26.2969 14,31.2969 14,33.9063 L14,35.1094 C14,38.7031 14.2031,42.2969 15.5938,42.2969 C15.7969,42.2969 16,42 16.2031,41.7969 C17.7031,40.5 18,26.6094 18.0938,22.2031 L18.4063,17.5938 L22,15.2969 C24.4063,13.7031 25.7969,12.4063 26,12.0938 C26.2031,11.5938 26.2031,10.2969 26.2031,8.5 L26.2031,7.20313 C26.2031,3.90625 26.1094,-1.29688 24.7969,-1.29688 C23.5,-1.29688 22,-0.59375 20.5938,0.296875 C19.7969,0.796875 19.5938,0.90625 19.5,0.90625 L19.5,0.796875 C19.5,0.5 19.5,-1.09375 19.5938,-3.59375 L19.5938,-8.09375 L21.4063,-8.79688 C25,-10.5 27,-12.7031 27.2031,-14.2031 C27.7031,-16.7031 28,-19.2969 28,-21.9063 L28,-23.5 C28,-24.5 27.7969,-25.0938 27,-25.0938 C26.1094,-25.0938 24.5938,-24.7969 22.2031,-23.5 C21.5,-23.2969 21.2969,-22.9063 21.2031,-22.9063 C21.2031,-22.9063 21.0938,-23.0938 21.0938,-23.2031 C21.0938,-23.5 21.5938,-25 21.7969,-27.7969 C22.5938,-37.6094 22.5938,-44.7031 22.5938,-48.7969 C22.5938,-51.2969 22.0938,-55.7969 21.2031,-55.7969 C21.0938,-55.7969 20.9063,-55.5 20.5938,-55.2031 C19.2031,-53.7031 18.2969,-48.6094 18,-38.9063 C17.5,-27.7031 17,-22 16.7969,-21.2969 C16.5,-20.5 13.9063,-19.7969 13,-19.5938 L13.2031,-22.4063 L13.2031,-24.2969 L13.2031,-29 L13.2031,-31.2969 L13.2031,-33.5 C13.2031,-36.4063 13.0938,-39 11.7969,-39 M10.7031,4 C10.7031,2.70313 10.7969,0.703125 11,-1.90625 L11.2031,-3.09375 L12.2031,-3.79688 C14.5938,-5.29688 15.9063,-6.09375 16.2031,-6.09375 C16.2969,-6.09375 16.4063,-6 16.4063,-5.79688 C16.4063,-5.09375 16.2969,-3.70313 16.2031,-1.29688 L16,3.09375 L14.7969,3.90625 C14,4.20313 12,5.70313 11,5.70313 C10.7031,5.70313 10.7031,4.90625 10.7031,4"/>
<path class="Accidental" transform="matrix(0.992001,0,0,0.992001,807.381,299.398)" d="M11.7969,-39 C10.5,-39 9.5,-33.4063 9.20313,-22.2031 C9.09375,-19.7031 9.09375,-18.2969 9,-18 C8.90625,-17.7031 8.59375,-17.0938 7.79688,-16.7969 C5.29688,-15.2969 3.29688,-14.2969 2.40625,-13.4063 C1.40625,-12.4063 1,-9 0.796875,-3.59375 L0.796875,-1.70313 L0.796875,-0.796875 C0.796875,0.296875 0.90625,1.29688 1.40625,1.29688 C1.90625,1.29688 3.5,0.796875 6,-0.5 C7,-1 7.70313,-1.20313 7.79688,-1.20313 C7.90625,-1.20313 8,-0.59375 8,0.40625 L8,3.09375 C8,5.40625 7.90625,7.59375 7.20313,7.79688 C7,7.90625 5.90625,8.5 4.20313,9.40625 C1.70313,10.7031 1.5,11 0.203125,12 L0,15.4063 L0,17.7969 C0,21.4063 0.40625,24.2031 1.40625,24.2031 C1.70313,24.2031 2.59375,23.9063 4.20313,23.4063 L7.20313,22.4063 L7.20313,23.0938 C7.20313,23.4063 7.20313,25.2031 7,28.5 C6.70313,34 6.40625,38.4063 6.40625,41.7031 C6.40625,45 6.70313,46.7969 7,47.7031 C7.20313,48.4063 7.40625,48.7031 8.20313,48.7031 C8.40625,48.7031 9,48.5 9.20313,48.2969 C10.2031,46.7969 10.5,33.5 10.7031,27.2031 L11,21 C11.7969,20.2031 12.7031,19.5938 14,19.5938 C14.2031,19.5938 14.2031,20.7969 14.2031,23.0938 C14.2031,26.2969 14,31.2969 14,33.9063 L14,35.1094 C14,38.7031 14.2031,42.2969 15.5938,42.2969 C15.7969,42.2969 16,42 16.2031,41.7969 C17.7031,40.5 18,26.6094 18.0938,22.2031 L18.4063,17.5938 L22,15.2969 C24.4063,13.7031 25.7969,12.4063 26,12.0938 C26.2031,11.5938 26.2031,10.2969 26.2031,8.5 L26.2031,7.20313 C26.2031,3.90625 26.1094,-1.29688 24.7969,-1.29688 C23.5,-1.29688 22,-0.59375 20.5938,0.296875 C19.7969,0.796875 19.5938,0.90625 19.5,0.90625 L19.5,0.796875 C19.5,0.5 19.5,-1.09375 19.5938,-3.59375 L19.5938,-8.09375 L21.4063,-8.79688 C25,-10.5 27,-12.7031 27.2031,-14.2031 C27.7031,-16.7031 28,-19.2969 28,-21.9063 L28,-23.5 C28,-24.5 27.7969,-25.0938 27,-25.0938 C26.1094,-25.0938 24.5938,-24.7969 22.2031,-23.5 C21.5,-23.2969 21.2969,-22.9063 21.2031,-22.9063 C21.2031,-22.9063 21.0938,-23.0938 21.0938,-23.2031 C21.0938,-23.5 21.5938,-25 21.7969,-27.7969 C22.5938,-37.6094 22.5938,-44.7031 22.5938,-48.7969 C22.5938,-51.2969 22.0938,-55.7969 21.2031,-55.7969 C21.0938,-55.7969 20.9063,-55.5 20.5938,-55.2031 C19.2031,-53.7031 18.2969,-48.6094 18,-38.9063 C17.5,-27.7031 17,-22 16.7969,-21.2969 C16.5,-20.5 13.9063,-19.7969 13,-19.5938 L13.2031,-22.4063 L13.2031,-24.2969 L13.2031,-29 L13.2031,-31.2969 L13.2031,-33.5 C13.2031,-36.4063 13.0938,-39 11.7969,-39 M10.7031,4 C10.7031,2.70313 10.7969,0.703125 11,-1.90625 L11.2031,-3.09375 L12.2031,-3.79688 C14.5938,-5.29688 15.9063,-6.09375 16.2031,-6.09375 C16.2969,-6.09375 16.4063,-6 16.4063,-5.79688 C16.4063,-5.09375 16.2969,-3.70313 16.2031,-1.29688 L16,3.09375 L14.7969,3.90625 C14,4.20313 12,5.70313 11,5.70313 C10.7031,5.70313 10.7031,4.90625 10.7031,4"/>
<polyline class="LedgerLine" fill="none" stroke="#000000" stroke-width="4.96" stroke-linejoin="bevel" points="378.588,510.199 436.713,510.199" />
<polyline class="LedgerLine" fill="none" stroke="#000000" stroke-width="4.96" stroke-linejoin="bevel" points="378.588,534.999 436.713,534.999" />
<polyline class="LedgerLine" fill="none" stroke="#000000" stroke-width="4.96" stroke-linejoin="bevel" points="839.605,311.798 897.731,311.798" />
<polyline class="LedgerLine" fill="none" stroke="#000000" stroke-width="4.96" stroke-linejoin="bevel" points="839.605,336.599 897.731,336.599" />
<polyline class="LedgerLine" fill="none" stroke="#000000" stroke-width="4.96" stroke-linejoin="bevel" points="839.605,361.399 897.731,361.399" />
<path class="Note" fill="#ffffff" transform="matrix(0.992001,0,0,0.992001,383.548,534.999)" d="M24.7969,-14.4063 C9.5,-14.4063 0,-7.90625 0,0 C0,7.70313 6.5,14.5938 23.7031,14.5938 C42.4063,14.5938 48.6094,8 48.6094,0 C48.6094,-8.20313 40.1094,-14.4063 24.7969,-14.4063"/>
<path class="Note" transform="matrix(0.992001,0,0,0.992001,383.548,534.999)" d="M24.7969,-14.4063 C9.5,-14.4063 0,-7.90625 0,0 C0,7.70313 6.5,14.5938 23.7031,14.5938 C42.4063,14.5938 48.6094,8 48.6094,0 C48.6094,-8.20313 40.1094,-14.4063 24.7969,-14.4063 M23.7969,12.0938 C10.9063,12.0938 6,6.40625 6,0 C6,-6.5 13.2031,-11.7969 24.7031,-11.7969 C36.2031,-11.7969 42.5,-6.70313 42.5,0 C42.5,6.70313 37.9063,12.0938 23.7969,12.0938 M17.2031,-9.5 L10.9063,7.29688 L14.2031,9.20313 L15.7969,5 L22.5938,5 L23.7969,8.70313 L27.7031,8.70313 L21.4063,-9.5 L17.2031,-9.5 M35.6094,-7.40625 L33.2969,-8.5 L33.2969,-4.70313 L31.4063,-3.90625 L31.4063,-7.59375 L29.1094,-7.59375 L29.1094,-3.09375 L27.4063,-2.40625 L27.4063,0.5 L29.1094,-0.09375 L29.1094,2.40625 L27.4063,3 L27.4063,6 L29.1094,5.29688 L29.1094,8.70313 L31.4063,8.70313 L31.4063,4.5 L33.2969,3.70313 L33.2969,7.40625 L35.6094,7.40625 L35.6094,2.79688 L37.7031,2 L37.7031,-1 L35.6094,-0.09375 L35.6094,-2.59375 L37.7031,-3.5 L37.7031,-6.40625 L35.6094,-5.59375 L35.6094,-7.40625 M16.7969,1.90625 L19.2031,-5.20313 L21.5938,1.90625 L16.7969,1.90625 M33.2969,0.703125 L31.4063,1.5 L31.4063,-1 L33.2969,-1.79688 L33.2969,0.703125 "/>
<path class="Note" fill="#ffffff" transform="matrix(0.992001,0,0,0.992001,844.565,299.398)" d="M24.7969,-14.4063 C9.5,-14.4063 0,-7.90625 0,0 C0,7.70313 6.5,14.5938 23.7031,14.5938 C42.4063,14.5938 48.6094,8 48.6094,0 C48.6094,-8.20313 40.1094,-14.4063 24.7969,-14.4063"/>
<path class="Note" transform="matrix(0.992001,0,0,0.992001,844.565,299.398)" d="M24.7969,-14.2969 C9.5,-14.2969 0,-7.79688 0,0.09375 C0,7.79688 6.5,14.7031 23.7031,14.7031 C42.4063,14.7031 48.6094,8.09375 48.6094,0.09375 C48.6094,-8.09375 40.1094,-14.2969 24.7969,-14.2969 M23.7969,12.2031 C10.9063,12.2031 6,6.5 6,0.203125 C6,-6.29688 13.2031,-11.7031 24.7031,-11.7031 C36.2031,-11.7031 42.5,-6.59375 42.5,0.203125 C42.5,6.79688 37.9063,12.2031 23.7969,12.2031 M26.1094,-5.40625 L26.1094,-8.5 L14.5,-8.5 L14.5,9.70313 L17.9063,9.70313 L17.9063,1.90625 L25.0938,1.90625 L25.0938,-1.29688 L17.9063,-1.29688 L17.9063,-5.40625 L26.1094,-5.40625 M37.7969,-2.59375 L37.7969,-5.59375 L35.7031,-4.79688 L35.7031,-7.09375 L33.4063,-8.09375 L33.4063,-3.90625 L31.5,-3.09375 L31.5,-6.79688 L29.2031,-6.79688 L29.2031,-2.29688 L27.5,-1.59375 L27.5,1.40625 L29.2031,0.703125 L29.2031,3.20313 L27.5,3.90625 L27.5,6.79688 L29.2031,6.09375 L29.2031,9.5 L31.5,9.5 L31.5,5.29688 L33.4063,4.5 L33.4063,8.20313 L35.7031,8.20313 L35.7031,3.59375 L37.7969,2.79688 L37.7969,-0.09375 L35.7031,0.703125 L35.7031,-1.79688 L37.7969,-2.59375 M33.4063,1.59375 L31.5,2.29688 L31.5,-0.203125 L33.4063,-0.90625 L33.4063,1.59375 "/>
<path class="Clef" transform="matrix(0.992001,0,0,0.992001,238.638,460.599)" d="M21.2031,-130.703 C21.2031,-130.313 22.0938,-121.609 24.2031,-105.203 L27.4063,-80.4063 L27,-79.1094 C26.5,-77.5 23.7969,-70.7031 19,-59.1094 C9.59375,-36.2031 3.70313,-19.5938 1.5,-9 C0.5,-4 0,0.703125 0,5.09375 C0,10.7969 0.90625,15.9063 2.5,20.7031 C7.09375,33.5 16.4063,39.7969 32,39.7969 C34.5,39.7969 36.7031,39.5 38.9063,39 C39.9063,38.7969 40.6094,38.7031 41.4063,38.7031 C42.4063,38.7031 42.6094,39.5 42.9063,40.7969 C43.2969,42.6094 43.4063,44.5 43.4063,46.4063 C43.4063,53.5 40.4063,61.7031 37.4063,67 L36.2031,69 L36.2969,71.1094 C36.7031,77.4063 37.5,81.4063 39.7969,81.4063 C40.2969,81.4063 41,81.1094 41.7969,80.6094 C42.7969,79.8125 43.7031,78.6094 44.4063,77.2031 C46.7969,72.2031 49.2031,61.5 49.2031,51.9063 C49.2031,46.9063 48.1094,39.7969 47.2969,36.6094 L47.2969,36.5 C47.2969,36.2969 47.2969,36 47.6094,35.7969 C48.7031,34.7969 52.6094,32 53.4063,31.5 C59,27.7031 65.1094,18.4063 67.2031,11.9063 C68.6094,7.59375 69.7031,1.70313 70.6094,-6.09375 C70.7969,-8.20313 71.1094,-10.2031 71.1094,-12.0938 C71.1094,-15.2969 70.7969,-18.4063 70.1094,-21.0938 C68.1094,-29.1094 63.5,-32.9063 55.9063,-32.9063 C55.1094,-32.9063 54.2031,-32.7969 53.7031,-32.7031 C48.5,-31.9063 43.6094,-29.2969 39,-25 L37.7031,-23.7969 L37.5,-25.9063 C36.1094,-35.4063 35,-48.4063 34.1094,-64.7969 L33.9063,-69 L35.5,-73.5 C40,-84.8125 42.2969,-94.3125 42.2969,-102.203 C42.2969,-117.109 36.9063,-127.703 27.5,-133.406 C26.1094,-134.203 25.5,-134.516 24.2031,-134.516 C22.5938,-134.516 21.2031,-132.203 21.2031,-130.703 M29.7969,-110.703 C30.2031,-110.703 30.5,-110.609 30.9063,-110.406 C32.5,-109.609 34,-107.813 35.2031,-104.906 C35.4063,-104.5 35.4063,-103.703 35.4063,-102.906 C35.4063,-99.9063 34.2969,-94.7031 31.9063,-86.9063 C31.7969,-86.6094 31.2031,-84.7031 31,-84.7031 C30.7969,-84.9063 30.5,-87.5 29.7969,-92.7031 C29.2969,-97.4063 28.7031,-102.313 28.7031,-107.313 L28.7031,-108.109 C28.7031,-109.703 28.7969,-110.703 29.7969,-110.703 M33.2031,-21.2969 L33.2031,-20.2969 L30.4063,-16.0938 C27.5,-12 25.5,-8.70313 24.2031,-6.29688 C20.7969,0.09375 18,7.20313 17.5,15.5 C17.4063,17.5 17.4063,18.5938 17.2969,18.5938 C16.7969,18.5938 12.9063,16.7969 12.5938,16.5938 C9.09375,14.5938 6.79688,10.5 6.79688,5.29688 C6.79688,4.5 6.90625,3.70313 7,2.79688 C8.20313,-6.40625 15.5,-25.6094 28.4063,-55 C28.6094,-55.5 29.5,-58.1094 29.7969,-58.1094 C30,-57.9063 33.2031,-21.4063 33.2031,-21.2969 M63.5,-12.7031 C63.7031,-12.4063 63.6094,-12.0938 63.6094,-11.4063 C63.6094,-6.79688 60.7969,-1.90625 55.7969,4.5 C52.6094,8.40625 49.7031,11.4063 47,13.2969 C44.7031,14.9063 43.4063,15.7969 42.7031,15.7969 C42.5,15.7969 42.2969,15.0938 42.2031,13.7969 C42,10.4063 40.7031,-2.70313 40.7031,-6.20313 C40.7031,-8.5 40.7969,-8.79688 42.2031,-10.0938 C44.6094,-12.2969 52.4063,-16.2969 56.5,-16.2969 C59.7969,-16.2969 62.6094,-14.2969 63.5,-12.7031 M37,2.70313 C37.5,7.5 38,11.2031 38.2969,13.7969 C38.6094,16.4063 38.7031,17.7969 38.7031,18 C38.7031,18.2031 37.5,18.2969 35.1094,18.7969 C31.7031,19.5 29,19.7969 27.1094,19.7969 C26.4063,19.7969 25.7969,19.9063 25.2969,19.7969 L23.5938,19.5 L23.7031,18.2031 C23.7031,16.5938 24.0938,14.5938 25,12.2969 C27.2969,6.20313 30.4063,2.09375 34.2969,-2.70313 C35.4063,-4 36,-4.59375 36.1094,-4.59375 C36.1094,-4.59375 36.5,-2.09375 37,2.70313"/>
</svg>
